<?xml version="1.0" standalone="no"?>
<!DOCTYPE svg PUBLIC "-//W3C//DTD SVG 20010904//EN"
 "http://www.w3.org/TR/2001/REC-SVG-20010904/DTD/svg10.dtd">
<svg version="1.0" xmlns="http://www.w3.org/2000/svg"
 width="700.000000pt" height="700.000000pt" viewBox="0 0 700.000000 700.000000"
 preserveAspectRatio="xMidYMid meet">
<metadata>
Created by potrace 1.14, written by Peter Selinger 2001-2017
</metadata>
<g transform="translate(0.000000,700.000000) scale(0.100000,-0.100000)"
fill="#000000" stroke="none">
<path d="M4470 5953 c91 -32 165 -106 194 -198 15 -45 16 -151 14 -1040 l-3
-990 -24 -45 c-43 -84 -122 -149 -206 -171 -21 -6 -15 -7 20 -3 97 11 182 69
230 155 l30 54 0 1020 0 1020 -30 54 c-37 66 -108 125 -177 146 -68 20 -106
19 -48 -2z"/>
<path d="M2695 5661 c-47 -12 -84 -41 -106 -82 -18 -37 -19 -66 -19 -845 l0
-807 24 -42 c47 -80 -5 -76 918 -73 812 3 817 3 845 24 15 12 37 36 48 55 19
33 20 55 23 834 3 904 6 862 -71 913 l-41 27 -795 2 c-438 1 -810 -2 -826 -6z
m872 -457 c13 -8 30 -25 39 -38 16 -26 333 -769 353 -828 21 -65 -24 -128 -90
-128 -55 0 -83 31 -128 140 l-40 95 -199 3 -200 2 -43 -101 c-24 -57 -53 -109
-67 -120 -30 -23 -84 -25 -117 -3 -28 18 -49 72 -39 100 4 10 83 201 177 424
101 242 180 416 196 433 42 46 105 54 158 21z"/>
<path d="M3438 4782 l-56 -137 59 -3 c32 -2 86 -2 118 0 l59 3 -56 137 c-31
76 -59 138 -62 138 -3 0 -31 -62 -62 -138z"/>
<path d="M3060 3491 c58 -19 110 -53 152 -100 83 -92 78 -27 78 -1126 0 -802
-2 -980 -14 -1018 -27 -89 -110 -174 -199 -203 l-42 -14 45 5 c103 13 190 79
237 181 l23 52 -2 1008 -3 1009 -30 54 c-47 84 -130 142 -225 155 -30 4 -37 3
-20 -3z"/>
<path d="M5835 3491 c84 -22 163 -87 206 -171 l24 -45 0 -1010 0 -1010 -24
-45 c-42 -81 -114 -142 -201 -171 -18 -7 -12 -7 20 -4 92 11 178 71 225 156
l30 54 0 1020 0 1020 -23 43 c-49 91 -139 155 -237 166 -35 4 -41 3 -20 -3z"/>
<path d="M1252 3168 c-17 -13 -41 -41 -52 -64 -19 -39 -20 -61 -20 -839 0
-787 0 -799 21 -841 11 -24 35 -53 54 -64 33 -20 41 -21 850 -20 878 0 842 -2
892 52 12 12 26 36 32 51 8 19 11 285 11 824 0 785 0 797 -21 839 -11 24 -35
52 -53 64 -33 20 -46 20 -857 20 l-824 0 -33 -22z m1054 -445 c72 -28 116 -65
147 -121 51 -93 48 -183 -9 -277 -34 -57 -34 -58 -14 -72 33 -23 60 -55 83
-98 31 -57 31 -192 -1 -251 -66 -128 -203 -168 -542 -162 l-172 3 -29 33 -29
32 0 434 c0 427 0 434 21 460 12 15 31 32 43 37 11 5 118 7 236 6 188 -3 221
-6 266 -24z"/>
<path d="M1940 2455 l0 -105 130 0 c182 0 220 18 220 108 0 76 -66 102 -257
102 l-93 0 0 -105z"/>
<path d="M1940 2045 l0 -118 153 5 c205 7 249 27 249 113 0 88 -41 108 -244
113 l-158 4 0 -117z"/>
<path d="M4055 3180 c-11 -4 -31 -18 -44 -30 -52 -50 -51 -29 -51 -891 l0
-802 25 -42 c46 -79 -8 -75 905 -75 899 0 843 -4 897 67 l28 36 0 823 c0 819
0 823 -21 851 -11 15 -36 38 -54 51 l-33 22 -816 -1 c-449 0 -825 -4 -836 -9z
m1098 -446 c170 -55 230 -133 158 -205 -37 -36 -65 -37 -150 -3 -103 41 -185
51 -266 31 -96 -24 -152 -67 -195 -151 -32 -64 -35 -74 -34 -161 0 -84 4 -100
33 -159 35 -71 68 -103 147 -138 73 -32 185 -30 284 7 111 40 131 42 168 10
25 -21 32 -34 32 -64 0 -52 -24 -79 -97 -112 -172 -79 -372 -79 -517 -1 -235
125 -325 453 -195 711 78 155 226 251 409 264 57 3 168 -11 223 -29z"/>
</g>
</svg>
